<?xml version="1.0" ?><svg id="Слой_1" style="enable-background:new 0 0 128 128;" version="1.1" viewBox="0 0 128 128" xml:space="preserve" xmlns="http://www.w3.org/2000/svg" xmlns:xlink="http://www.w3.org/1999/xlink"><style type="text/css">
	.st0{fill:#5385CD;}
</style><g id="XMLID_22_"><path class="st0" d="M104.5,96.9l-5.5-16.4c-1.2-3.5-4.6-5.9-8.3-5.9h0c-0.5,0-1,0-1.4,0.1C89.2,74.8,71.1,78,64,78   s-25.2-3.2-25.4-3.2c-0.5-0.1-1-0.1-1.4-0.1c-3.7,0-7.1,2.4-8.3,5.9l-5.5,16.4c-0.7,2.2-0.4,4.5,0.8,6.3s3.3,2.8,5.7,2.8h68   c2.4,0,4.4-1,5.7-2.8S105.3,99.2,104.5,96.9z M98,102H30c-2.2,0-3.4-1.7-2.7-3.8l5.5-16.4c0.6-1.9,2.5-3.2,4.5-3.2   c0.2,0,0.5,0,0.7,0.1c0,0,18.5,3.3,26.1,3.3s26.1-3.3,26.1-3.3c0.2,0,0.5-0.1,0.7-0.1c1.9,0,3.9,1.3,4.5,3.2l5.5,16.4   C101.4,100.3,100.2,102,98,102z" id="XMLID_27_"/><path class="st0" d="M64,74c12-0.1,20.7-13.3,22-25.6c0.9-8.7-0.8-15.4-4.9-20c-3.8-4.2-9.6-6.4-17-6.4   s-13.2,2.2-17,6.4c-4.2,4.6-5.8,11.3-4.9,20C43.4,60.7,52.1,73.9,64,74z M82,48c-1.2,11.3-8.9,22-18,22c-9,0-16.8-10.7-18-22   c-0.4-4.3-0.2-8.3,0.9-11.7c2.8,1.6,8.6,4.4,15,4.4c2.9,0,5.9-0.6,8.8-2.1l2-1L70,33.4c3.5-1,8.1,0.4,10.5,1.4   C82.1,38.5,82.5,43.1,82,48z M64,26c5.4,0,9.3,1.3,12.2,3.4c-3.3-0.6-7.2-0.6-10.3,1.6l-1.6,1.1l2.6,3.8   c-7.3,2.4-15.3-1.6-18.2-3.3C51.5,28.6,56.3,26,64,26z" id="XMLID_23_"/></g></svg>